<svg xmlns="http://www.w3.org/2000/svg" width="48" height="48" viewBox="0 0 48 48">
  <!-- Teal circle -->
  <circle cx="24" cy="24" r="24" fill="#1A5F7A"/>
  <!-- Gold decorative ring -->
  <circle cx="24" cy="24" r="20.5" fill="none" stroke="#C8963E" stroke-width="0.5" opacity="0.35"/>
  <!-- Serif N -->
  <path d="
    M14.5 35 L14.5 14 L16 12.5 L18 12.5 L18 28 L30 12.5 L33.5 12.5 L33.5 34 L32 35.5 L30 35.5 L30 20 L18 35.5 Z
  " fill="#FAF7F0"/>
  <!-- Gold 4-point star (noor) -->
  <path d="M24 4.5 L25 8 L24 7 L23 8 Z M24 11.5 L25 8 L24 9 L23 8 Z M20.5 8 L23 7 L24 8 L23 9 Z M27.5 8 L25 7 L24 8 L25 9 Z" fill="#C8963E" opacity="0.8"/>
  <!-- Bottom accent dots -->
  <circle cx="20" cy="42" r="0.8" fill="#C8963E" opacity="0.4"/>
  <circle cx="24" cy="43" r="0.8" fill="#C8963E" opacity="0.4"/>
  <circle cx="28" cy="42" r="0.8" fill="#C8963E" opacity="0.4"/>
</svg>
