<svg xmlns="http://www.w3.org/2000/svg" width="40" height="40" viewBox="0 0 40 40">
  <circle cx="20" cy="20" r="20" fill="#1A5F7A"/>
  <circle cx="20" cy="20" r="16.8" fill="none" stroke="#C8963E" stroke-width="0.45" opacity="0.35"/>
  <!-- N letterform -->
  <path d="
    M12 29.5 L12 11.5 L13.2 10.5 L15 10.5 L15 23.5 L25 10.5 L28 10.5 L28 28.5 L26.8 29.5 L25 29.5 L25 16.5 L15 29.5 Z
  " fill="#FAF7F0"/>
  <!-- Gold star -->
  <path d="M20 3.5 L20.8 6.2 L20 5.4 L19.2 6.2 Z M20 9.5 L20.8 6.8 L20 7.6 L19.2 6.8 Z M16.8 6.5 L19.2 5.8 L20 6.5 L19.2 7.2 Z M23.2 6.5 L20.8 5.8 L20 6.5 L20.8 7.2 Z" fill="#C8963E" opacity="0.8"/>
  <circle cx="16.5" cy="35" r="0.65" fill="#C8963E" opacity="0.4"/>
  <circle cx="20" cy="36" r="0.65" fill="#C8963E" opacity="0.4"/>
  <circle cx="23.5" cy="35" r="0.65" fill="#C8963E" opacity="0.4"/>
</svg>
